<?xml version="1.0" encoding="UTF-8" standalone="no"?>
<svg width="600" height="400" viewBox="0 0 600 400" xmlns="http://www.w3.org/2000/svg">
  <!-- Background gradient -->
  <defs>
    <linearGradient id="bg-gradient" x1="0%" y1="0%" x2="100%" y2="100%">
      <stop offset="0%" stop-color="#01072e" />
      <stop offset="100%" stop-color="#0b1650" />
    </linearGradient>
    
    <!-- Particle glow effect -->
    <filter id="glow" x="-50%" y="-50%" width="200%" height="200%">
      <feGaussianBlur stdDeviation="2.5" result="blur" />
      <feComposite in="SourceGraphic" in2="blur" operator="over" />
    </filter>
  </defs>
  
  <!-- Background -->
  <rect width="600" height="400" fill="url(#bg-gradient)" />
  
  <!-- Head silhouette made of particles -->
  <g filter="url(#glow)">
    <!-- Generate particles for the head shape -->
    <!-- Left side of face -->
    <circle cx="250" cy="100" r="1.5" fill="#0088ff" opacity="0.8" />
    <circle cx="240" cy="110" r="2" fill="#0088ff" opacity="0.7" />
    <circle cx="235" cy="120" r="1" fill="#00a2ff" opacity="0.9" />
    <circle cx="230" cy="130" r="1.5" fill="#0088ff" opacity="0.8" />
    <circle cx="225" cy="140" r="1" fill="#00a2ff" opacity="0.7" />
    <circle cx="220" cy="150" r="2" fill="#0088ff" opacity="0.9" />
    <circle cx="217" cy="160" r="1.5" fill="#00a2ff" opacity="0.8" />
    <circle cx="215" cy="170" r="1" fill="#0088ff" opacity="0.7" />
    <circle cx="213" cy="180" r="2" fill="#00a2ff" opacity="0.9" />
    <circle cx="212" cy="190" r="1.5" fill="#0088ff" opacity="0.8" />
    <circle cx="211" cy="200" r="1" fill="#00a2ff" opacity="0.7" />
    <circle cx="210" cy="210" r="2" fill="#0088ff" opacity="0.9" />
    <circle cx="211" cy="220" r="1.5" fill="#00a2ff" opacity="0.8" />
    <circle cx="212" cy="230" r="1" fill="#0088ff" opacity="0.7" />
    <circle cx="215" cy="240" r="2" fill="#00a2ff" opacity="0.9" />
    <circle cx="220" cy="250" r="1.5" fill="#0088ff" opacity="0.8" />
    <circle cx="225" cy="260" r="1" fill="#00a2ff" opacity="0.7" />
    <circle cx="232" cy="270" r="2" fill="#0088ff" opacity="0.9" />
    <circle cx="240" cy="280" r="1.5" fill="#00a2ff" opacity="0.8" />
    
    <!-- Right side of face -->
    <circle cx="320" cy="100" r="2" fill="#0088ff" opacity="0.9" />
    <circle cx="330" cy="110" r="1.5" fill="#00a2ff" opacity="0.8" />
    <circle cx="335" cy="120" r="1" fill="#0088ff" opacity="0.7" />
    <circle cx="340" cy="130" r="2" fill="#00a2ff" opacity="0.9" />
    <circle cx="345" cy="140" r="1.5" fill="#0088ff" opacity="0.8" />
    <circle cx="350" cy="150" r="1" fill="#00a2ff" opacity="0.7" />
    <circle cx="353" cy="160" r="2" fill="#0088ff" opacity="0.9" />
    <circle cx="355" cy="170" r="1.5" fill="#00a2ff" opacity="0.8" />
    <circle cx="357" cy="180" r="1" fill="#0088ff" opacity="0.7" />
    <circle cx="358" cy="190" r="2" fill="#00a2ff" opacity="0.9" />
    <circle cx="359" cy="200" r="1.5" fill="#0088ff" opacity="0.8" />
    <circle cx="360" cy="210" r="1" fill="#00a2ff" opacity="0.7" />
    <circle cx="359" cy="220" r="2" fill="#0088ff" opacity="0.9" />
    <circle cx="358" cy="230" r="1.5" fill="#00a2ff" opacity="0.8" />
    <circle cx="355" cy="240" r="1" fill="#0088ff" opacity="0.7" />
    <circle cx="350" cy="250" r="2" fill="#00a2ff" opacity="0.9" />
    <circle cx="345" cy="260" r="1.5" fill="#0088ff" opacity="0.8" />
    <circle cx="338" cy="270" r="1" fill="#00a2ff" opacity="0.7" />
    <circle cx="330" cy="280" r="2" fill="#0088ff" opacity="0.9" />
    
    <!-- Top of head -->
    <circle cx="260" cy="90" r="1.5" fill="#00a2ff" opacity="0.8" />
    <circle cx="270" cy="85" r="1" fill="#0088ff" opacity="0.7" />
    <circle cx="280" cy="82" r="2" fill="#00a2ff" opacity="0.9" />
    <circle cx="290" cy="80" r="1.5" fill="#0088ff" opacity="0.8" />
    <circle cx="300" cy="80" r="1" fill="#00a2ff" opacity="0.7" />
    <circle cx="310" cy="82" r="2" fill="#0088ff" opacity="0.9" />
    
    <!-- Fill in with more particles -->
    <circle cx="250" cy="150" r="1.2" fill="#00a2ff" opacity="0.6" />
    <circle cx="260" cy="170" r="1.8" fill="#0088ff" opacity="0.7" />
    <circle cx="270" cy="190" r="1.4" fill="#00a2ff" opacity="0.8" />
    <circle cx="280" cy="210" r="1.9" fill="#0088ff" opacity="0.7" />
    <circle cx="290" cy="170" r="1.3" fill="#00a2ff" opacity="0.9" />
    <circle cx="300" cy="190" r="1.7" fill="#0088ff" opacity="0.8" />
    <circle cx="310" cy="150" r="1.1" fill="#00a2ff" opacity="0.7" />
    <circle cx="320" cy="180" r="1.6" fill="#0088ff" opacity="0.8" />
    <circle cx="330" cy="200" r="1.2" fill="#00a2ff" opacity="0.7" />
    
    <!-- Add more scattered particles -->
    <circle cx="245" cy="160" r="0.8" fill="#00a2ff" opacity="0.5" />
    <circle cx="255" cy="180" r="0.9" fill="#0088ff" opacity="0.6" />
    <circle cx="265" cy="200" r="0.7" fill="#00a2ff" opacity="0.5" />
    <circle cx="275" cy="150" r="0.6" fill="#0088ff" opacity="0.7" />
    <circle cx="285" cy="170" r="0.8" fill="#00a2ff" opacity="0.6" />
    <circle cx="295" cy="190" r="0.7" fill="#0088ff" opacity="0.5" />
    <circle cx="305" cy="160" r="0.9" fill="#00a2ff" opacity="0.7" />
    <circle cx="315" cy="140" r="0.8" fill="#0088ff" opacity="0.6" />
    <circle cx="325" cy="170" r="0.7" fill="#00a2ff" opacity="0.5" />
    
    <!-- Add dense cluster areas -->
    <circle cx="270" cy="130" r="1.0" fill="#00a2ff" opacity="0.7" />
    <circle cx="272" cy="132" r="0.8" fill="#0088ff" opacity="0.6" />
    <circle cx="274" cy="134" r="1.2" fill="#00a2ff" opacity="0.8" />
    <circle cx="276" cy="136" r="0.9" fill="#0088ff" opacity="0.7" />
    <circle cx="278" cy="138" r="1.1" fill="#00a2ff" opacity="0.6" />
    
    <circle cx="310" cy="210" r="1.0" fill="#0088ff" opacity="0.7" />
    <circle cx="312" cy="212" r="0.8" fill="#00a2ff" opacity="0.6" />
    <circle cx="314" cy="214" r="1.2" fill="#0088ff" opacity="0.8" />
    <circle cx="316" cy="216" r="0.9" fill="#00a2ff" opacity="0.7" />
    <circle cx="318" cy="218" r="1.1" fill="#0088ff" opacity="0.6" />
    
    <!-- Brain area particles (more concentrated) -->
    <circle cx="280" cy="150" r="1.3" fill="#00d2ff" opacity="0.9" />
    <circle cx="285" cy="148" r="1.5" fill="#00b8ff" opacity="0.8" />
    <circle cx="290" cy="152" r="1.1" fill="#00d2ff" opacity="0.7" />
    <circle cx="295" cy="147" r="1.4" fill="#00b8ff" opacity="0.9" />
    <circle cx="300" cy="151" r="1.2" fill="#00d2ff" opacity="0.8" />
    <circle cx="305" cy="146" r="1.6" fill="#00b8ff" opacity="0.7" />
    <circle cx="310" cy="153" r="1.0" fill="#00d2ff" opacity="0.9" />
    
    <circle cx="283" cy="155" r="0.9" fill="#00b8ff" opacity="0.6" />
    <circle cx="288" cy="157" r="0.8" fill="#00d2ff" opacity="0.7" />
    <circle cx="293" cy="154" r="1.0" fill="#00b8ff" opacity="0.8" />
    <circle cx="298" cy="158" r="0.7" fill="#00d2ff" opacity="0.6" />
    <circle cx="303" cy="156" r="0.9" fill="#00b8ff" opacity="0.7" />
    <circle cx="308" cy="159" r="0.8" fill="#00d2ff" opacity="0.8" />
    
    <!-- Add many more particles to create a dense effect -->
    <!-- First batch of dense particles -->
    <circle cx="255" cy="140" r="0.7" fill="#0088ff" opacity="0.6" />
    <circle cx="260" cy="145" r="0.6" fill="#00a2ff" opacity="0.7" />
    <circle cx="265" cy="150" r="0.8" fill="#0088ff" opacity="0.5" />
    <circle cx="270" cy="155" r="0.7" fill="#00a2ff" opacity="0.6" />
    <circle cx="275" cy="160" r="0.9" fill="#0088ff" opacity="0.7" />
    <circle cx="280" cy="165" r="0.6" fill="#00a2ff" opacity="0.5" />
    <circle cx="285" cy="170" r="0.8" fill="#0088ff" opacity="0.6" />
    <circle cx="290" cy="175" r="0.7" fill="#00a2ff" opacity="0.7" />
    <circle cx="295" cy="180" r="0.9" fill="#0088ff" opacity="0.5" />
    <circle cx="300" cy="185" r="0.6" fill="#00a2ff" opacity="0.6" />
    <circle cx="305" cy="190" r="0.8" fill="#0088ff" opacity="0.7" />
    <circle cx="310" cy="195" r="0.7" fill="#00a2ff" opacity="0.5" />
    <circle cx="315" cy="200" r="0.9" fill="#0088ff" opacity="0.6" />
    <circle cx="320" cy="205" r="0.6" fill="#00a2ff" opacity="0.7" />
    <circle cx="325" cy="210" r="0.8" fill="#0088ff" opacity="0.5" />

    <!-- Second batch of dense particles -->
    <circle cx="257" cy="142" r="0.8" fill="#00a2ff" opacity="0.7" />
    <circle cx="262" cy="147" r="0.7" fill="#0088ff" opacity="0.6" />
    <circle cx="267" cy="152" r="0.9" fill="#00a2ff" opacity="0.8" />
    <circle cx="272" cy="157" r="0.6" fill="#0088ff" opacity="0.5" />
    <circle cx="277" cy="162" r="0.8" fill="#00a2ff" opacity="0.7" />
    <circle cx="282" cy="167" r="0.7" fill="#0088ff" opacity="0.6" />
    <circle cx="287" cy="172" r="0.9" fill="#00a2ff" opacity="0.8" />
    <circle cx="292" cy="177" r="0.6" fill="#0088ff" opacity="0.5" />
    <circle cx="297" cy="182" r="0.8" fill="#00a2ff" opacity="0.7" />
    <circle cx="302" cy="187" r="0.7" fill="#0088ff" opacity="0.6" />
    <circle cx="307" cy="192" r="0.9" fill="#00a2ff" opacity="0.8" />
    <circle cx="312" cy="197" r="0.6" fill="#0088ff" opacity="0.5" />
    <circle cx="317" cy="202" r="0.8" fill="#00a2ff" opacity="0.7" />
    <circle cx="322" cy="207" r="0.7" fill="#0088ff" opacity="0.6" />
    <circle cx="327" cy="212" r="0.9" fill="#00a2ff" opacity="0.8" />
  </g>
  
  <!-- Text "GENERATIVE AI" -->
  <text x="300" y="320" font-family="Arial, sans-serif" font-size="32" font-weight="bold" fill="#00a2ff" text-anchor="middle">GENERATIVE AI</text>
</svg>