<?xml version="1.0" encoding="UTF-8" standalone="no"?>
<svg width="600" height="400" viewBox="0 0 600 400" xmlns="http://www.w3.org/2000/svg">
  <!-- Background gradient -->
  <defs>
    <linearGradient id="bg-gradient" x1="0%" y1="0%" x2="100%" y2="100%">
      <stop offset="0%" stop-color="#01072e" />
      <stop offset="100%" stop-color="#0b1650" />
    </linearGradient>
    
    <!-- Particle glow effect -->
    <filter id="glow" x="-50%" y="-50%" width="200%" height="200%">
      <feGaussianBlur stdDeviation="3.5" result="blur" />
      <feComposite in="SourceGraphic" in2="blur" operator="over" />
    </filter>
  </defs>
  
  <!-- Background -->
  <rect width="600" height="400" fill="url(#bg-gradient)" />
  
  <!-- Head silhouette made of particles -->
  <g filter="url(#glow)">
    <!-- Create a basic head profile silhouette with dots -->
    <path d="M300,120 Q380,120 400,180 Q420,240 400,280 Q380,320 350,330 Q320,345 300,350 Q280,345 250,330 Q220,320 200,280 Q180,240 200,180 Q220,120 300,120" fill="none" stroke="none" />
    
    <!-- Forehead particles -->
    <circle cx="300" cy="120" r="1.4" fill="#0088ff" opacity="0.9" />
    <circle cx="310" cy="122" r="1.2" fill="#00a2ff" opacity="0.8" />
    <circle cx="320" cy="124" r="1.6" fill="#0088ff" opacity="0.7" />
    <circle cx="330" cy="128" r="1.3" fill="#00a2ff" opacity="0.9" />
    <circle cx="340" cy="134" r="1.8" fill="#0088ff" opacity="0.8" />
    <circle cx="350" cy="142" r="1.5" fill="#00a2ff" opacity="0.7" />
    <circle cx="360" cy="152" r="1.7" fill="#0088ff" opacity="0.9" />
    <circle cx="370" cy="164" r="1.4" fill="#00a2ff" opacity="0.8" />
    <circle cx="375" cy="178" r="1.6" fill="#0088ff" opacity="0.7" />
    
    <!-- Left side of head -->
    <circle cx="290" cy="122" r="1.5" fill="#00a2ff" opacity="0.9" />
    <circle cx="280" cy="124" r="1.3" fill="#0088ff" opacity="0.8" />
    <circle cx="270" cy="128" r="1.7" fill="#00a2ff" opacity="0.7" />
    <circle cx="260" cy="134" r="1.4" fill="#0088ff" opacity="0.9" />
    <circle cx="250" cy="142" r="1.6" fill="#00a2ff" opacity="0.8" />
    <circle cx="240" cy="152" r="1.3" fill="#0088ff" opacity="0.7" />
    <circle cx="230" cy="164" r="1.8" fill="#00a2ff" opacity="0.9" />
    <circle cx="225" cy="178" r="1.5" fill="#0088ff" opacity="0.8" />
    
    <!-- Chin area -->
    <circle cx="300" cy="350" r="1.6" fill="#00a2ff" opacity="0.9" />
    <circle cx="310" cy="345" r="1.4" fill="#0088ff" opacity="0.8" />
    <circle cx="320" cy="338" r="1.8" fill="#00a2ff" opacity="0.7" />
    <circle cx="330" cy="330" r="1.5" fill="#0088ff" opacity="0.9" />
    <circle cx="290" cy="345" r="1.7" fill="#00a2ff" opacity="0.8" />
    <circle cx="280" cy="338" r="1.3" fill="#0088ff" opacity="0.7" />
    <circle cx="270" cy="330" r="1.9" fill="#00a2ff" opacity="0.9" />
    
    <!-- Fill face with dense particles -->
    <!-- Creating a cloud of particles for the face -->
    <g>
      <!-- Dense cloud of particles in the entire head area -->
      <g>
        <!-- Top head area particles -->
        <circle cx="300" cy="140" r="1.0" fill="#0088ff" opacity="0.8" />
        <circle cx="290" cy="135" r="0.8" fill="#00a2ff" opacity="0.7" />
        <circle cx="280" cy="138" r="1.2" fill="#0088ff" opacity="0.9" />
        <circle cx="310" cy="137" r="0.9" fill="#00a2ff" opacity="0.8" />
        <circle cx="320" cy="139" r="1.1" fill="#0088ff" opacity="0.7" />
        <circle cx="270" cy="142" r="0.8" fill="#00a2ff" opacity="0.9" />
        <circle cx="330" cy="144" r="1.0" fill="#0088ff" opacity="0.8" />
        
        <!-- Middle of face particles -->
        <circle cx="300" cy="180" r="1.1" fill="#00a2ff" opacity="0.9" />
        <circle cx="290" cy="175" r="0.9" fill="#0088ff" opacity="0.8" />
        <circle cx="280" cy="178" r="1.3" fill="#00a2ff" opacity="0.7" />
        <circle cx="310" cy="177" r="1.0" fill="#0088ff" opacity="0.9" />
        <circle cx="320" cy="179" r="1.2" fill="#00a2ff" opacity="0.8" />
        <circle cx="270" cy="182" r="0.9" fill="#0088ff" opacity="0.7" />
        <circle cx="330" cy="184" r="1.1" fill="#00a2ff" opacity="0.9" />
        
        <!-- Chin area particles -->
        <circle cx="300" cy="220" r="1.2" fill="#0088ff" opacity="0.8" />
        <circle cx="290" cy="215" r="1.0" fill="#00a2ff" opacity="0.7" />
        <circle cx="280" cy="218" r="1.4" fill="#0088ff" opacity="0.9" />
        <circle cx="310" cy="217" r="1.1" fill="#00a2ff" opacity="0.8" />
        <circle cx="320" cy="219" r="1.3" fill="#0088ff" opacity="0.7" />
        <circle cx="270" cy="222" r="1.0" fill="#00a2ff" opacity="0.9" />
        <circle cx="330" cy="224" r="1.2" fill="#0088ff" opacity="0.8" />
      </g>
      
      <!-- Add many more scattered particles to create a dense effect -->
      <g>
        <circle cx="292" cy="150" r="0.7" fill="#00a2ff" opacity="0.6" />
        <circle cx="305" cy="153" r="0.5" fill="#0088ff" opacity="0.5" />
        <circle cx="315" cy="157" r="0.8" fill="#00a2ff" opacity="0.7" />
        <circle cx="285" cy="160" r="0.6" fill="#0088ff" opacity="0.5" />
        <circle cx="297" cy="164" r="0.9" fill="#00a2ff" opacity="0.8" />
        <circle cx="308" cy="168" r="0.7" fill="#0088ff" opacity="0.6" />
        <circle cx="320" cy="170" r="0.5" fill="#00a2ff" opacity="0.7" />
        <circle cx="280" cy="172" r="0.8" fill="#0088ff" opacity="0.5" />
        <circle cx="294" cy="175" r="0.6" fill="#00a2ff" opacity="0.8" />
        <circle cx="305" cy="178" r="0.9" fill="#0088ff" opacity="0.7" />
        <circle cx="316" cy="182" r="0.7" fill="#00a2ff" opacity="0.6" />
        <circle cx="287" cy="185" r="0.5" fill="#0088ff" opacity="0.8" />
        <circle cx="298" cy="188" r="0.8" fill="#00a2ff" opacity="0.7" />
        <circle cx="310" cy="192" r="0.6" fill="#0088ff" opacity="0.5" />
        <circle cx="275" cy="195" r="0.9" fill="#00a2ff" opacity="0.8" />
        
        <circle cx="288" cy="200" r="0.7" fill="#0088ff" opacity="0.6" />
        <circle cx="301" cy="203" r="0.5" fill="#00a2ff" opacity="0.5" />
        <circle cx="313" cy="207" r="0.8" fill="#0088ff" opacity="0.7" />
        <circle cx="282" cy="210" r="0.6" fill="#00a2ff" opacity="0.5" />
        <circle cx="296" cy="214" r="0.9" fill="#0088ff" opacity="0.8" />
        <circle cx="307" cy="218" r="0.7" fill="#00a2ff" opacity="0.6" />
        <circle cx="319" cy="220" r="0.5" fill="#0088ff" opacity="0.7" />
        <circle cx="278" cy="222" r="0.8" fill="#00a2ff" opacity="0.5" />
        <circle cx="292" cy="225" r="0.6" fill="#0088ff" opacity="0.8" />
        <circle cx="303" cy="228" r="0.9" fill="#00a2ff" opacity="0.7" />
        <circle cx="315" cy="232" r="0.7" fill="#0088ff" opacity="0.6" />
        <circle cx="285" cy="235" r="0.5" fill="#00a2ff" opacity="0.8" />
        <circle cx="297" cy="238" r="0.8" fill="#0088ff" opacity="0.7" />
        <circle cx="308" cy="242" r="0.6" fill="#00a2ff" opacity="0.5" />
        <circle cx="272" cy="245" r="0.9" fill="#0088ff" opacity="0.8" />
      </g>
      
      <!-- Add particle clusters/constellations in brain area -->
      <g>
        <!-- Left brain hemisphere -->
        <circle cx="275" cy="160" r="1.3" fill="#00a2ff" opacity="0.9" />
        <circle cx="273" cy="155" r="1.0" fill="#0088ff" opacity="0.8" />
        <circle cx="278" cy="152" r="0.7" fill="#00a2ff" opacity="0.7" />
        <circle cx="282" cy="158" r="1.2" fill="#0088ff" opacity="0.9" />
        <circle cx="270" cy="163" r="0.9" fill="#00a2ff" opacity="0.8" />
        <circle cx="276" cy="167" r="1.1" fill="#0088ff" opacity="0.7" />
        <circle cx="280" cy="170" r="0.8" fill="#00a2ff" opacity="0.9" />
        
        <!-- Lines connecting left hemisphere particles -->
        <line x1="275" y1="160" x2="273" y2="155" stroke="#00a2ff" strokeWidth="0.3" opacity="0.4" />
        <line x1="273" y1="155" x2="278" y2="152" stroke="#00a2ff" strokeWidth="0.3" opacity="0.4" />
        <line x1="278" y1="152" x2="282" y2="158" stroke="#00a2ff" strokeWidth="0.3" opacity="0.4" />
        <line x1="282" y1="158" x2="275" y2="160" stroke="#00a2ff" strokeWidth="0.3" opacity="0.4" />
        <line x1="275" y1="160" x2="270" y2="163" stroke="#00a2ff" strokeWidth="0.3" opacity="0.4" />
        <line x1="270" y1="163" x2="276" y2="167" stroke="#00a2ff" strokeWidth="0.3" opacity="0.4" />
        <line x1="276" y1="167" x2="280" y2="170" stroke="#00a2ff" strokeWidth="0.3" opacity="0.4" />
        <line x1="280" y1="170" x2="275" y2="160" stroke="#00a2ff" strokeWidth="0.3" opacity="0.4" />
        
        <!-- Right brain hemisphere -->
        <circle cx="325" cy="160" r="1.3" fill="#00a2ff" opacity="0.9" />
        <circle cx="327" cy="155" r="1.0" fill="#0088ff" opacity="0.8" />
        <circle cx="322" cy="152" r="0.7" fill="#00a2ff" opacity="0.7" />
        <circle cx="318" cy="158" r="1.2" fill="#0088ff" opacity="0.9" />
        <circle cx="330" cy="163" r="0.9" fill="#00a2ff" opacity="0.8" />
        <circle cx="324" cy="167" r="1.1" fill="#0088ff" opacity="0.7" />
        <circle cx="320" cy="170" r="0.8" fill="#00a2ff" opacity="0.9" />
        
        <!-- Lines connecting right hemisphere particles -->
        <line x1="325" y1="160" x2="327" y2="155" stroke="#00a2ff" strokeWidth="0.3" opacity="0.4" />
        <line x1="327" y1="155" x2="322" y2="152" stroke="#00a2ff" strokeWidth="0.3" opacity="0.4" />
        <line x1="322" y1="152" x2="318" y2="158" stroke="#00a2ff" strokeWidth="0.3" opacity="0.4" />
        <line x1="318" y1="158" x2="325" y2="160" stroke="#00a2ff" strokeWidth="0.3" opacity="0.4" />
        <line x1="325" y1="160" x2="330" y2="163" stroke="#00a2ff" strokeWidth="0.3" opacity="0.4" />
        <line x1="330" y1="163" x2="324" y2="167" stroke="#00a2ff" strokeWidth="0.3" opacity="0.4" />
        <line x1="324" y1="167" x2="320" y2="170" stroke="#00a2ff" strokeWidth="0.3" opacity="0.4" />
        <line x1="320" y1="170" x2="325" y2="160" stroke="#00a2ff" strokeWidth="0.3" opacity="0.4" />
        
        <!-- Connecting the hemispheres -->
        <line x1="280" y1="170" x2="320" y2="170" stroke="#00a2ff" strokeWidth="0.3" opacity="0.4" />
        <line x1="275" y1="160" x2="325" y2="160" stroke="#00a2ff" strokeWidth="0.3" opacity="0.4" />
        <line x1="278" y1="152" x2="322" y2="152" stroke="#00a2ff" strokeWidth="0.3" opacity="0.4" />
      </g>
    </g>
  </g>
  
  <!-- Text "GENERATIVE AI" -->
  <text x="300" y="320" font-family="Arial, sans-serif" font-size="32" font-weight="bold" fill="#00a2ff" text-anchor="middle" filter="url(#glow)">GENERATIVE AI</text>
  
  <!-- Comprehensive Text above it -->
  <text x="300" y="280" font-family="Arial, sans-serif" font-size="24" font-weight="bold" fill="#ffffff" text-anchor="middle" opacity="0.9">COMPREHENSIVE</text>
</svg>